<mxfile host="app.diagrams.net" agent="Mozilla/5.0 (Windows NT 10.0; Win64; x64) AppleWebKit/537.36 (KHTML, like Gecko) Chrome/129.0.0.0 Safari/537.36" version="24.7.16">
  <diagram id="C5RBs43oDa-KdzZeNtuy" name="Page-1">
    <mxGraphModel dx="1764" dy="1182" grid="1" gridSize="10" guides="1" tooltips="1" connect="1" arrows="1" fold="1" page="1" pageScale="1" pageWidth="827" pageHeight="1169" math="0" shadow="0">
      <root>
        <mxCell id="WIyWlLk6GJQsqaUBKTNV-0" />
        <mxCell id="WIyWlLk6GJQsqaUBKTNV-1" parent="WIyWlLk6GJQsqaUBKTNV-0" />
        <mxCell id="WIyWlLk6GJQsqaUBKTNV-2" value="" style="rounded=0;html=1;jettySize=auto;orthogonalLoop=1;fontSize=11;endArrow=block;endFill=0;endSize=8;strokeWidth=1;shadow=0;labelBackgroundColor=none;edgeStyle=orthogonalEdgeStyle;entryX=0.5;entryY=0;entryDx=0;entryDy=0;" parent="WIyWlLk6GJQsqaUBKTNV-1" source="WIyWlLk6GJQsqaUBKTNV-3" target="REm7MUD5ccELvckoGV4V-7" edge="1">
          <mxGeometry relative="1" as="geometry">
            <mxPoint x="298" y="190" as="targetPoint" />
            <Array as="points" />
          </mxGeometry>
        </mxCell>
        <mxCell id="WIyWlLk6GJQsqaUBKTNV-3" value="Select Schedule Page" style="rounded=1;whiteSpace=wrap;html=1;fontSize=12;glass=0;strokeWidth=1;shadow=0;" parent="WIyWlLk6GJQsqaUBKTNV-1" vertex="1">
          <mxGeometry x="88" y="140" width="120" height="40" as="geometry" />
        </mxCell>
        <mxCell id="REm7MUD5ccELvckoGV4V-1" value="" style="endArrow=none;html=1;rounded=0;" edge="1" parent="WIyWlLk6GJQsqaUBKTNV-1">
          <mxGeometry width="50" height="50" relative="1" as="geometry">
            <mxPoint x="250" y="910" as="sourcePoint" />
            <mxPoint x="250" y="40" as="targetPoint" />
          </mxGeometry>
        </mxCell>
        <mxCell id="REm7MUD5ccELvckoGV4V-2" value="Display Home" style="rounded=1;whiteSpace=wrap;html=1;fontSize=12;glass=0;strokeWidth=1;shadow=0;" vertex="1" parent="WIyWlLk6GJQsqaUBKTNV-1">
          <mxGeometry x="288" y="140" width="120" height="40" as="geometry" />
        </mxCell>
        <mxCell id="REm7MUD5ccELvckoGV4V-5" value="" style="rounded=0;html=1;jettySize=auto;orthogonalLoop=1;fontSize=11;endArrow=block;endFill=0;endSize=8;strokeWidth=1;shadow=0;labelBackgroundColor=none;edgeStyle=orthogonalEdgeStyle;entryX=1;entryY=0.5;entryDx=0;entryDy=0;" edge="1" parent="WIyWlLk6GJQsqaUBKTNV-1" source="REm7MUD5ccELvckoGV4V-2" target="WIyWlLk6GJQsqaUBKTNV-3">
          <mxGeometry relative="1" as="geometry">
            <mxPoint x="278" y="190" as="sourcePoint" />
            <mxPoint x="278" y="240" as="targetPoint" />
          </mxGeometry>
        </mxCell>
        <mxCell id="REm7MUD5ccELvckoGV4V-15" value="" style="edgeStyle=orthogonalEdgeStyle;rounded=0;orthogonalLoop=1;jettySize=auto;html=1;" edge="1" parent="WIyWlLk6GJQsqaUBKTNV-1" source="REm7MUD5ccELvckoGV4V-7" target="REm7MUD5ccELvckoGV4V-14">
          <mxGeometry relative="1" as="geometry" />
        </mxCell>
        <mxCell id="REm7MUD5ccELvckoGV4V-7" value="Select Schedule Page" style="rounded=1;whiteSpace=wrap;html=1;fontSize=12;glass=0;strokeWidth=1;shadow=0;" vertex="1" parent="WIyWlLk6GJQsqaUBKTNV-1">
          <mxGeometry x="88" y="220" width="120" height="40" as="geometry" />
        </mxCell>
        <mxCell id="REm7MUD5ccELvckoGV4V-14" value="Display Schedule" style="rounded=1;whiteSpace=wrap;html=1;fontSize=12;glass=0;strokeWidth=1;shadow=0;" vertex="1" parent="WIyWlLk6GJQsqaUBKTNV-1">
          <mxGeometry x="288" y="220" width="120" height="40" as="geometry" />
        </mxCell>
        <mxCell id="REm7MUD5ccELvckoGV4V-16" value="" style="endArrow=none;html=1;rounded=0;" edge="1" parent="WIyWlLk6GJQsqaUBKTNV-1">
          <mxGeometry width="50" height="50" relative="1" as="geometry">
            <mxPoint x="450" y="910" as="sourcePoint" />
            <mxPoint x="450" y="40" as="targetPoint" />
          </mxGeometry>
        </mxCell>
        <mxCell id="REm7MUD5ccELvckoGV4V-17" value="" style="endArrow=none;html=1;rounded=0;" edge="1" parent="WIyWlLk6GJQsqaUBKTNV-1">
          <mxGeometry width="50" height="50" relative="1" as="geometry">
            <mxPoint x="640" y="910" as="sourcePoint" />
            <mxPoint x="640" y="40" as="targetPoint" />
          </mxGeometry>
        </mxCell>
        <mxCell id="REm7MUD5ccELvckoGV4V-20" value="Filter&lt;div&gt;results?&lt;/div&gt;" style="rhombus;whiteSpace=wrap;html=1;" vertex="1" parent="WIyWlLk6GJQsqaUBKTNV-1">
          <mxGeometry x="108" y="310" width="80" height="80" as="geometry" />
        </mxCell>
        <mxCell id="REm7MUD5ccELvckoGV4V-21" value="" style="endArrow=classic;html=1;rounded=0;entryX=0.5;entryY=0;entryDx=0;entryDy=0;exitX=0.5;exitY=1;exitDx=0;exitDy=0;" edge="1" parent="WIyWlLk6GJQsqaUBKTNV-1" source="REm7MUD5ccELvckoGV4V-14" target="REm7MUD5ccELvckoGV4V-20">
          <mxGeometry width="50" height="50" relative="1" as="geometry">
            <mxPoint x="368" y="420" as="sourcePoint" />
            <mxPoint x="418" y="370" as="targetPoint" />
            <Array as="points">
              <mxPoint x="348" y="290" />
              <mxPoint x="148" y="290" />
            </Array>
          </mxGeometry>
        </mxCell>
        <mxCell id="REm7MUD5ccELvckoGV4V-23" value="Display Schedule" style="rounded=1;whiteSpace=wrap;html=1;fontSize=12;glass=0;strokeWidth=1;shadow=0;" vertex="1" parent="WIyWlLk6GJQsqaUBKTNV-1">
          <mxGeometry x="488" y="330" width="120" height="40" as="geometry" />
        </mxCell>
        <mxCell id="REm7MUD5ccELvckoGV4V-24" value="" style="endArrow=classic;html=1;rounded=0;exitX=1;exitY=0.5;exitDx=0;exitDy=0;entryX=0;entryY=0.5;entryDx=0;entryDy=0;" edge="1" parent="WIyWlLk6GJQsqaUBKTNV-1" source="REm7MUD5ccELvckoGV4V-20" target="REm7MUD5ccELvckoGV4V-23">
          <mxGeometry width="50" height="50" relative="1" as="geometry">
            <mxPoint x="368" y="420" as="sourcePoint" />
            <mxPoint x="418" y="370" as="targetPoint" />
          </mxGeometry>
        </mxCell>
        <mxCell id="REm7MUD5ccELvckoGV4V-25" value="Yes" style="edgeLabel;html=1;align=center;verticalAlign=middle;resizable=0;points=[];" vertex="1" connectable="0" parent="REm7MUD5ccELvckoGV4V-24">
          <mxGeometry x="-0.0158" y="-2" relative="1" as="geometry">
            <mxPoint as="offset" />
          </mxGeometry>
        </mxCell>
        <mxCell id="REm7MUD5ccELvckoGV4V-26" value="" style="endArrow=classic;html=1;rounded=0;exitX=0;exitY=0.5;exitDx=0;exitDy=0;" edge="1" parent="WIyWlLk6GJQsqaUBKTNV-1" source="REm7MUD5ccELvckoGV4V-20">
          <mxGeometry width="50" height="50" relative="1" as="geometry">
            <mxPoint x="368" y="420" as="sourcePoint" />
            <mxPoint x="88" y="420" as="targetPoint" />
            <Array as="points">
              <mxPoint x="88" y="350" />
            </Array>
          </mxGeometry>
        </mxCell>
        <mxCell id="REm7MUD5ccELvckoGV4V-27" value="No" style="edgeLabel;html=1;align=center;verticalAlign=middle;resizable=0;points=[];" vertex="1" connectable="0" parent="REm7MUD5ccELvckoGV4V-26">
          <mxGeometry x="0.2453" y="-1" relative="1" as="geometry">
            <mxPoint as="offset" />
          </mxGeometry>
        </mxCell>
        <mxCell id="REm7MUD5ccELvckoGV4V-29" value="" style="shape=link;html=1;rounded=0;" edge="1" parent="WIyWlLk6GJQsqaUBKTNV-1">
          <mxGeometry width="100" relative="1" as="geometry">
            <mxPoint x="68" y="420" as="sourcePoint" />
            <mxPoint x="228" y="420" as="targetPoint" />
          </mxGeometry>
        </mxCell>
        <mxCell id="REm7MUD5ccELvckoGV4V-30" value="" style="endArrow=classic;html=1;rounded=0;" edge="1" parent="WIyWlLk6GJQsqaUBKTNV-1">
          <mxGeometry width="50" height="50" relative="1" as="geometry">
            <mxPoint x="148" y="420" as="sourcePoint" />
            <mxPoint x="148" y="470" as="targetPoint" />
          </mxGeometry>
        </mxCell>
        <mxCell id="REm7MUD5ccELvckoGV4V-33" value="" style="endArrow=classic;html=1;rounded=0;exitX=0.5;exitY=1;exitDx=0;exitDy=0;" edge="1" parent="WIyWlLk6GJQsqaUBKTNV-1" source="REm7MUD5ccELvckoGV4V-23">
          <mxGeometry width="50" height="50" relative="1" as="geometry">
            <mxPoint x="368" y="420" as="sourcePoint" />
            <mxPoint x="408" y="400" as="targetPoint" />
            <Array as="points">
              <mxPoint x="548" y="400" />
            </Array>
          </mxGeometry>
        </mxCell>
        <mxCell id="REm7MUD5ccELvckoGV4V-34" value="Display Filtered Info" style="rounded=1;whiteSpace=wrap;html=1;fontSize=12;glass=0;strokeWidth=1;shadow=0;" vertex="1" parent="WIyWlLk6GJQsqaUBKTNV-1">
          <mxGeometry x="288" y="380" width="120" height="40" as="geometry" />
        </mxCell>
        <mxCell id="REm7MUD5ccELvckoGV4V-36" value="" style="endArrow=classic;html=1;rounded=0;exitX=0;exitY=0.5;exitDx=0;exitDy=0;" edge="1" parent="WIyWlLk6GJQsqaUBKTNV-1" source="REm7MUD5ccELvckoGV4V-34">
          <mxGeometry width="50" height="50" relative="1" as="geometry">
            <mxPoint x="368" y="420" as="sourcePoint" />
            <mxPoint x="208" y="420" as="targetPoint" />
            <Array as="points">
              <mxPoint x="208" y="400" />
            </Array>
          </mxGeometry>
        </mxCell>
        <mxCell id="REm7MUD5ccELvckoGV4V-40" value="" style="edgeStyle=orthogonalEdgeStyle;rounded=0;orthogonalLoop=1;jettySize=auto;html=1;" edge="1" parent="WIyWlLk6GJQsqaUBKTNV-1" source="REm7MUD5ccELvckoGV4V-37" target="REm7MUD5ccELvckoGV4V-39">
          <mxGeometry relative="1" as="geometry" />
        </mxCell>
        <mxCell id="REm7MUD5ccELvckoGV4V-37" value="Select Class" style="rounded=1;whiteSpace=wrap;html=1;fontSize=12;glass=0;strokeWidth=1;shadow=0;" vertex="1" parent="WIyWlLk6GJQsqaUBKTNV-1">
          <mxGeometry x="88" y="470" width="120" height="40" as="geometry" />
        </mxCell>
        <mxCell id="REm7MUD5ccELvckoGV4V-39" value="Display info" style="rounded=1;whiteSpace=wrap;html=1;fontSize=12;glass=0;strokeWidth=1;shadow=0;" vertex="1" parent="WIyWlLk6GJQsqaUBKTNV-1">
          <mxGeometry x="288" y="470" width="120" height="40" as="geometry" />
        </mxCell>
        <mxCell id="REm7MUD5ccELvckoGV4V-47" style="edgeStyle=orthogonalEdgeStyle;rounded=0;orthogonalLoop=1;jettySize=auto;html=1;exitX=0;exitY=0.5;exitDx=0;exitDy=0;" edge="1" parent="WIyWlLk6GJQsqaUBKTNV-1" source="REm7MUD5ccELvckoGV4V-41">
          <mxGeometry relative="1" as="geometry">
            <mxPoint x="318" y="260" as="targetPoint" />
            <Array as="points">
              <mxPoint x="58" y="605" />
              <mxPoint x="58" y="280" />
              <mxPoint x="318" y="280" />
            </Array>
          </mxGeometry>
        </mxCell>
        <mxCell id="REm7MUD5ccELvckoGV4V-49" value="No" style="edgeLabel;html=1;align=center;verticalAlign=middle;resizable=0;points=[];" vertex="1" connectable="0" parent="REm7MUD5ccELvckoGV4V-47">
          <mxGeometry x="-0.9311" y="-4" relative="1" as="geometry">
            <mxPoint as="offset" />
          </mxGeometry>
        </mxCell>
        <mxCell id="REm7MUD5ccELvckoGV4V-41" value="Checkout?" style="rhombus;whiteSpace=wrap;html=1;" vertex="1" parent="WIyWlLk6GJQsqaUBKTNV-1">
          <mxGeometry x="108" y="565" width="80" height="80" as="geometry" />
        </mxCell>
        <mxCell id="REm7MUD5ccELvckoGV4V-42" value="" style="endArrow=classic;html=1;rounded=0;exitX=0.5;exitY=1;exitDx=0;exitDy=0;entryX=0.5;entryY=0;entryDx=0;entryDy=0;" edge="1" parent="WIyWlLk6GJQsqaUBKTNV-1" source="REm7MUD5ccELvckoGV4V-39" target="REm7MUD5ccELvckoGV4V-41">
          <mxGeometry width="50" height="50" relative="1" as="geometry">
            <mxPoint x="368" y="420" as="sourcePoint" />
            <mxPoint x="348" y="570" as="targetPoint" />
            <Array as="points">
              <mxPoint x="348" y="540" />
              <mxPoint x="148" y="540" />
            </Array>
          </mxGeometry>
        </mxCell>
        <mxCell id="REm7MUD5ccELvckoGV4V-43" value="Yes" style="endArrow=classic;html=1;rounded=0;exitX=1;exitY=0.5;exitDx=0;exitDy=0;" edge="1" parent="WIyWlLk6GJQsqaUBKTNV-1" source="REm7MUD5ccELvckoGV4V-41">
          <mxGeometry width="50" height="50" relative="1" as="geometry">
            <mxPoint x="368" y="550" as="sourcePoint" />
            <mxPoint x="288" y="605" as="targetPoint" />
          </mxGeometry>
        </mxCell>
        <mxCell id="REm7MUD5ccELvckoGV4V-50" style="edgeStyle=orthogonalEdgeStyle;rounded=0;orthogonalLoop=1;jettySize=auto;html=1;exitX=0.5;exitY=1;exitDx=0;exitDy=0;" edge="1" parent="WIyWlLk6GJQsqaUBKTNV-1" source="REm7MUD5ccELvckoGV4V-44" target="REm7MUD5ccELvckoGV4V-51">
          <mxGeometry relative="1" as="geometry">
            <mxPoint x="148" y="700" as="targetPoint" />
          </mxGeometry>
        </mxCell>
        <mxCell id="REm7MUD5ccELvckoGV4V-44" value="Display form" style="rounded=1;whiteSpace=wrap;html=1;fontSize=12;glass=0;strokeWidth=1;shadow=0;" vertex="1" parent="WIyWlLk6GJQsqaUBKTNV-1">
          <mxGeometry x="288" y="585" width="120" height="40" as="geometry" />
        </mxCell>
        <mxCell id="REm7MUD5ccELvckoGV4V-52" style="edgeStyle=orthogonalEdgeStyle;rounded=0;orthogonalLoop=1;jettySize=auto;html=1;exitX=0.5;exitY=1;exitDx=0;exitDy=0;" edge="1" parent="WIyWlLk6GJQsqaUBKTNV-1" source="REm7MUD5ccELvckoGV4V-51" target="REm7MUD5ccELvckoGV4V-85">
          <mxGeometry relative="1" as="geometry">
            <mxPoint x="720" y="790" as="targetPoint" />
          </mxGeometry>
        </mxCell>
        <mxCell id="REm7MUD5ccELvckoGV4V-51" value="Enter Info" style="rounded=1;whiteSpace=wrap;html=1;" vertex="1" parent="WIyWlLk6GJQsqaUBKTNV-1">
          <mxGeometry x="88" y="700" width="120" height="40" as="geometry" />
        </mxCell>
        <mxCell id="REm7MUD5ccELvckoGV4V-86" style="edgeStyle=orthogonalEdgeStyle;rounded=0;orthogonalLoop=1;jettySize=auto;html=1;exitX=1;exitY=0.5;exitDx=0;exitDy=0;entryX=1;entryY=0.5;entryDx=0;entryDy=0;" edge="1" parent="WIyWlLk6GJQsqaUBKTNV-1" source="REm7MUD5ccELvckoGV4V-85" target="REm7MUD5ccELvckoGV4V-51">
          <mxGeometry relative="1" as="geometry" />
        </mxCell>
        <mxCell id="REm7MUD5ccELvckoGV4V-87" value="No" style="edgeLabel;html=1;align=center;verticalAlign=middle;resizable=0;points=[];" vertex="1" connectable="0" parent="REm7MUD5ccELvckoGV4V-86">
          <mxGeometry x="-0.8027" y="1" relative="1" as="geometry">
            <mxPoint y="-1" as="offset" />
          </mxGeometry>
        </mxCell>
        <mxCell id="REm7MUD5ccELvckoGV4V-85" value="Payment&lt;div&gt;Successful?&lt;/div&gt;" style="rhombus;whiteSpace=wrap;html=1;" vertex="1" parent="WIyWlLk6GJQsqaUBKTNV-1">
          <mxGeometry x="679.9999999999998" y="780" width="80" height="80" as="geometry" />
        </mxCell>
        <mxCell id="REm7MUD5ccELvckoGV4V-91" value="" style="edgeStyle=orthogonalEdgeStyle;rounded=0;orthogonalLoop=1;jettySize=auto;html=1;exitX=0;exitY=0.5;exitDx=0;exitDy=0;" edge="1" parent="WIyWlLk6GJQsqaUBKTNV-1" source="REm7MUD5ccELvckoGV4V-85" target="REm7MUD5ccELvckoGV4V-89">
          <mxGeometry relative="1" as="geometry">
            <mxPoint x="559.9999999999998" y="820.4615384615383" as="targetPoint" />
            <mxPoint x="680" y="820" as="sourcePoint" />
          </mxGeometry>
        </mxCell>
        <mxCell id="REm7MUD5ccELvckoGV4V-98" value="Yes" style="edgeLabel;html=1;align=center;verticalAlign=middle;resizable=0;points=[];" vertex="1" connectable="0" parent="REm7MUD5ccELvckoGV4V-91">
          <mxGeometry x="-0.5028" y="4" relative="1" as="geometry">
            <mxPoint x="1" as="offset" />
          </mxGeometry>
        </mxCell>
        <mxCell id="REm7MUD5ccELvckoGV4V-92" style="edgeStyle=orthogonalEdgeStyle;rounded=0;orthogonalLoop=1;jettySize=auto;html=1;exitX=0;exitY=0.5;exitDx=0;exitDy=0;" edge="1" parent="WIyWlLk6GJQsqaUBKTNV-1" source="REm7MUD5ccELvckoGV4V-89" target="REm7MUD5ccELvckoGV4V-93">
          <mxGeometry relative="1" as="geometry">
            <mxPoint x="399.9999999999998" y="820.4615384615383" as="targetPoint" />
          </mxGeometry>
        </mxCell>
        <mxCell id="REm7MUD5ccELvckoGV4V-89" value="Update Class Availability" style="rounded=1;whiteSpace=wrap;html=1;fontSize=12;glass=0;strokeWidth=1;shadow=0;" vertex="1" parent="WIyWlLk6GJQsqaUBKTNV-1">
          <mxGeometry x="488" y="800" width="120" height="40" as="geometry" />
        </mxCell>
        <mxCell id="REm7MUD5ccELvckoGV4V-93" value="Display Confirmation" style="rounded=1;whiteSpace=wrap;html=1;" vertex="1" parent="WIyWlLk6GJQsqaUBKTNV-1">
          <mxGeometry x="288" y="800" width="120" height="40" as="geometry" />
        </mxCell>
        <mxCell id="REm7MUD5ccELvckoGV4V-94" value="User" style="text;html=1;align=center;verticalAlign=middle;resizable=0;points=[];autosize=1;strokeColor=none;fillColor=none;" vertex="1" parent="WIyWlLk6GJQsqaUBKTNV-1">
          <mxGeometry x="115" y="18" width="50" height="30" as="geometry" />
        </mxCell>
        <mxCell id="REm7MUD5ccELvckoGV4V-95" value="Frontend" style="text;html=1;align=center;verticalAlign=middle;resizable=0;points=[];autosize=1;strokeColor=none;fillColor=none;" vertex="1" parent="WIyWlLk6GJQsqaUBKTNV-1">
          <mxGeometry x="313" y="18" width="70" height="30" as="geometry" />
        </mxCell>
        <mxCell id="REm7MUD5ccELvckoGV4V-96" value="Backend" style="text;html=1;align=center;verticalAlign=middle;resizable=0;points=[];autosize=1;strokeColor=none;fillColor=none;" vertex="1" parent="WIyWlLk6GJQsqaUBKTNV-1">
          <mxGeometry x="510" y="18" width="70" height="30" as="geometry" />
        </mxCell>
        <mxCell id="REm7MUD5ccELvckoGV4V-97" value="Payment" style="text;html=1;align=center;verticalAlign=middle;resizable=0;points=[];autosize=1;strokeColor=none;fillColor=none;" vertex="1" parent="WIyWlLk6GJQsqaUBKTNV-1">
          <mxGeometry x="705" y="18" width="70" height="30" as="geometry" />
        </mxCell>
      </root>
    </mxGraphModel>
  </diagram>
</mxfile>
